<?xml version="1.0" encoding="UTF-8" standalone="no"?>
<svg
   enable-background="new 0 0 50 50"
   height="252pt"
   id="Layer_1"
   version="1.1"
   viewBox="0 0 180 252"
   width="180pt"
   xml:space="preserve"
   sodipodi:docname="flag+goal+icon-1320184287049565711.svg"
   inkscape:export-filename="flag+goal+icon-1320184287049565711.png"
   inkscape:export-xdpi="40"
   inkscape:export-ydpi="40"
   inkscape:version="1.2 (dc2aeda, 2022-05-15)"
   xmlns:inkscape="http://www.inkscape.org/namespaces/inkscape"
   xmlns:sodipodi="http://sodipodi.sourceforge.net/DTD/sodipodi-0.dtd"
   xmlns="http://www.w3.org/2000/svg"
   xmlns:svg="http://www.w3.org/2000/svg"><defs
     id="defs27" /><sodipodi:namedview
     id="namedview25"
     pagecolor="#ffffff"
     bordercolor="#666666"
     borderopacity="1.0"
     inkscape:showpageshadow="2"
     inkscape:pageopacity="1"
     inkscape:pagecheckerboard="false"
     inkscape:deskcolor="#d1d1d1"
     showgrid="false"
     inkscape:zoom="2.5595238"
     inkscape:cx="100.99535"
     inkscape:cy="166.82791"
     inkscape:window-width="1920"
     inkscape:window-height="1080"
     inkscape:window-x="1920"
     inkscape:window-y="0"
     inkscape:window-maximized="0"
     inkscape:current-layer="Layer_1"
     inkscape:document-units="pt" /><g
     id="g3780"
     transform="matrix(2.1134883,0,0,2.1134883,36.627907,83.218605)"><rect
       fill="none"
       height="50"
       width="50"
       id="rect2"
       x="0"
       y="0" /><line
       fill="none"
       stroke="#000000"
       stroke-linecap="round"
       stroke-linejoin="round"
       stroke-miterlimit="10"
       stroke-width="2"
       x1="18.594"
       x2="3.3729999"
       y1="47.919998"
       y2="5.4070001"
       id="line4" /><path
       d="M 4.448,8.409 C 4.448,8.409 10.359,2 20.627,2 26.877,2 29.733,6.073 34.891,6.073 40.046,6.073 44.998,2 44.998,2 v 26.471 c 0,0 -3.723,2.037 -8.146,2.037 -4.421,0 -6.225,-2.037 -12.217,-2.037 -5.683,0 -11.025,5.516 -11.025,5.516 z"
       fill="none"
       stroke="#000000"
       stroke-linecap="round"
       stroke-linejoin="round"
       stroke-miterlimit="10"
       stroke-width="2"
       id="path6" /><path
       d="m 4.448,8.409 c 0,0 3.067,-3.248 7.207,-4.584 l 3.164,8.124 c 0,0 -4.086,1.47 -7.422,4.605 L 4.553,8.709"
       id="path8" /><path
       d="m 14.819,11.949 3.412,8.759 c 0,0 2.683,-0.954 4.53,-0.954 1.847,0 3.678,0.271 3.678,0.271 L 23.962,10.71 c 0,0 -0.7,-0.099 -1.563,-0.099 -4.135,0 -7.58,1.338 -7.58,1.338 z"
       id="path10" /><path
       d="m 10.72,25.776 2.89,8.21 c 0,0 3.997,-3.832 7.804,-4.91 l -3.182,-8.368 c -3.666,1.412 -7.512,5.068 -7.512,5.068 z"
       id="path12" /><path
       d="m 21.676,2.111 2.287,8.598 c 1.85,0 6.994,2.521 6.994,2.521 L 28.929,4.351 C 27.766,3.916 24.721,2.255 21.676,2.111 Z"
       id="path14" /><path
       d="m 26.439,20.024 2.355,8.851 c 1.186,0 4.586,1.449 6.065,1.449 l -1.988,-8.702 c -1.914,-0.498 -5.012,-1.399 -6.432,-1.598 z"
       id="path16" /><path
       d="m 30.957,13.231 1.915,8.392 c 0,0 1.916,0.354 3.231,0.354 1.314,0 2.953,-0.298 2.953,-0.298 l -0.622,-7.684 c 0,0 -1.269,0.394 -2.807,0.394 -2.402,0 -4.67,-1.158 -4.67,-1.158 z"
       id="path18" /><path
       d="m 37.762,5.671 0.673,8.323 c 0,0 3.129,-0.786 6.565,-3.384 L 44.998,2 c -3.945,3.022 -7.236,3.671 -7.236,3.671 z"
       id="path20" /><path
       d="m 39.057,21.679 c 0,0 3.014,-0.559 5.941,-2.259 v 9.051 c -3.117,1.496 -5.261,1.767 -5.261,1.767 z"
       id="path22" /></g></svg>
